<svg width="11" height="12" viewBox="0 0 11 12" fill="none" xmlns="http://www.w3.org/2000/svg">
<path d="M1.35814 11.1432C2.09148 11.1432 2.69148 10.5432 2.69148 9.8099V5.14323C2.69148 4.4099 2.09148 3.8099 1.35814 3.8099C0.624811 3.8099 0.0248108 4.4099 0.0248108 5.14323V9.8099C0.0248108 10.5432 0.624811 11.1432 1.35814 11.1432ZM8.02481 7.8099V9.8099C8.02481 10.5432 8.62481 11.1432 9.35814 11.1432C10.0915 11.1432 10.6915 10.5432 10.6915 9.8099V7.8099C10.6915 7.07656 10.0915 6.47656 9.35814 6.47656C8.62481 6.47656 8.02481 7.07656 8.02481 7.8099ZM5.35814 11.1432C6.09148 11.1432 6.69148 10.5432 6.69148 9.8099V1.8099C6.69148 1.07656 6.09148 0.476562 5.35814 0.476562C4.62481 0.476562 4.02481 1.07656 4.02481 1.8099V9.8099C4.02481 10.5432 4.62481 11.1432 5.35814 11.1432Z" fill="white"/>
</svg>
