<svg width="16" height="14" viewBox="0 0 16 14" fill="none" xmlns="http://www.w3.org/2000/svg">
<path d="M7.90638 9.48903V12.819M7.90638 9.48903L11.9024 12.819M7.90638 9.48903L3.91039 12.819M5.24239 3.49505V6.82504M7.90638 4.82704V6.82504M10.5704 6.15904V6.82504M14.5664 0.831055H1.2464M1.9124 0.831055H13.9004V6.29224C13.9004 7.41122 13.9004 7.97071 13.6826 8.3981C13.491 8.77405 13.1854 9.0797 12.8094 9.27126C12.382 9.48903 11.8225 9.48903 10.7036 9.48903H5.10919C3.99021 9.48903 3.43071 9.48903 3.00332 9.27126C2.62737 9.0797 2.32172 8.77405 2.13017 8.3981C1.9124 7.97071 1.9124 7.41122 1.9124 6.29224V0.831055Z" stroke="black" stroke-width="1.37005" stroke-linecap="round" stroke-linejoin="round"/>
</svg>
