<svg width="10" height="13" viewBox="0 0 10 13" fill="none" xmlns="http://www.w3.org/2000/svg">
<path d="M1.69001 12.6426C1.36918 12.6426 1.09462 12.5284 0.866346 12.3002C0.638068 12.0719 0.523735 11.7971 0.523346 11.4759V5.64258C0.523346 5.32175 0.637679 5.04719 0.866346 4.81891C1.09501 4.59063 1.36957 4.4763 1.69001 4.47591H6.94001V3.30925C6.94001 2.82313 6.76987 2.40994 6.4296 2.06966C6.08932 1.72938 5.67612 1.55925 5.19001 1.55925C4.78168 1.55925 4.42429 1.6833 4.11785 1.93141C3.8114 2.17952 3.6049 2.48811 3.49835 2.85716C3.45946 2.99327 3.37915 3.10275 3.25743 3.18558C3.13571 3.26841 3.00212 3.30963 2.85668 3.30925C2.6914 3.30925 2.55296 3.25577 2.44135 3.14883C2.32973 3.04188 2.28832 2.9155 2.3171 2.76966C2.42404 2.10855 2.74721 1.547 3.2866 1.085C3.82598 0.622995 4.46046 0.39219 5.19001 0.392579C5.99696 0.392579 6.6849 0.677051 7.25385 1.246C7.82279 1.81494 8.10707 2.50269 8.10668 3.30925V4.47591H8.69001C9.01085 4.47591 9.2856 4.59025 9.51426 4.81891C9.74293 5.04758 9.85707 5.32213 9.85668 5.64258V11.4759C9.85668 11.7967 9.74254 12.0715 9.51426 12.3002C9.28598 12.5288 9.01123 12.643 8.69001 12.6426H1.69001ZM5.19001 9.72591C5.51085 9.72591 5.7856 9.61177 6.01426 9.3835C6.24293 9.15522 6.35707 8.88047 6.35668 8.55925C6.35629 8.23802 6.24215 7.96347 6.01426 7.73558C5.78637 7.50769 5.51162 7.39336 5.19001 7.39258C4.8684 7.3918 4.59385 7.50613 4.36635 7.73558C4.13885 7.96502 4.02451 8.23958 4.02335 8.55925C4.02218 8.87891 4.13651 9.15366 4.36635 9.3835C4.59618 9.61333 4.87073 9.72747 5.19001 9.72591Z" fill="white"/>
</svg>
